# xmcd
#
# Track frame offsets:
#	182
#	19507
#	56167
#
# Disc length: 1127 seconds
# Revision: 0
# Processed by: cddbd v1.5.2PL0 Copyright (c) Steve Scherf et al.
# Submitted via: dBpowerAMP V12.0
#
DISCID=1d046503
DTITLE=Yolanda Adams - Open My Heart
DYEAR=2000
DGENRE=House
TTITLE0=Open My Heart [Pound Boys Radio Edit]
TTITLE1=Open My Heart [Pound Boys Vocal]
TTITLE2=Open My Heart [Pound Boys Dub]
EXTD=
EXTT0=
EXTT1=
EXTT2=
PLAYORDER=
